<?xml version="1.0" encoding="iso-8859-1"?>
<!-- Generator: Adobe Illustrator 19.0.0, SVG Export Plug-In . SVG Version: 6.00 Build 0)  -->
<svg xmlns="http://www.w3.org/2000/svg" xmlns:xlink="http://www.w3.org/1999/xlink" version="1.1" id="Layer_1" x="0px" y="0px" viewBox="0 0 469.333 469.333" style="enable-background:new 0 0 469.333 469.333;" xml:space="preserve">
<g>
	<g>
		<g>
			<path d="M266.667,341.333h-64c-17.646,0-32,14.354-32,32v64c0,17.646,14.354,32,32,32h64c17.646,0,32-14.354,32-32v-64     C298.667,355.688,284.312,341.333,266.667,341.333z"/>
			<path d="M96,341.333H32c-17.646,0-32,14.354-32,32v64c0,17.646,14.354,32,32,32h64c17.646,0,32-14.354,32-32v-64     C128,355.688,113.646,341.333,96,341.333z"/>
			<path d="M437.333,341.333h-64c-17.646,0-32,14.354-32,32v64c0,17.646,14.354,32,32,32h64c17.646,0,32-14.354,32-32v-64     C469.333,355.688,454.979,341.333,437.333,341.333z"/>
			<path d="M4,275l53.333,42.667C59.281,319.219,61.646,320,64,320c2.354,0,4.719-0.781,6.667-2.333L124,275     c3.531-2.833,4.896-7.594,3.396-11.865c-1.5-4.271-5.531-7.135-10.063-7.135H96c-2.104,0-4.167,0.625-5.917,1.792l-0.978,0.652     c11.099-52.357,45.326-59.118,84.53-66.694c12.52-2.419,26.671-5.25,39.698-10.5v79.708l-4.75-3.167     c-1.75-1.167-3.813-1.792-5.917-1.792h-21.333c-4.531,0-8.563,2.865-10.063,7.135s-0.135,9.031,3.396,11.865L228,317.667     c1.948,1.552,4.313,2.333,6.667,2.333s4.719-0.781,6.667-2.333L294.667,275c3.531-2.833,4.896-7.583,3.396-11.865     C296.573,258.865,292.531,256,288,256l-21.333-0.01h-0.01c-2.104,0-4.167,0.625-5.917,1.792l-4.74,3.163v-79.686     c13.027,5.25,27.178,8.076,39.698,10.492c39.28,7.595,73.53,14.254,84.603,66.742l-1.051-0.701     c-1.75-1.167-3.813-1.792-5.917-1.792H352c-4.531,0-8.563,2.865-10.063,7.135s-0.135,9.031,3.396,11.865l53.333,42.667     c1.948,1.552,4.313,2.333,6.667,2.333s4.719-0.781,6.667-2.333L465.333,275c3.531-2.833,4.896-7.594,3.396-11.865     S463.198,256,458.667,256h-21.333c-2.104,0-4.167,0.625-5.917,1.792l-7.181,4.786c-12.988-91.831-77.547-104.431-120.444-112.713     C271.363,143.6,260.477,139.32,257.276,128H384c23.531,0,42.667-19.135,42.667-42.667V42.667C426.667,19.135,407.531,0,384,0     H85.333C61.802,0,42.667,19.135,42.667,42.667v42.667c0,23.531,19.135,42.667,42.667,42.667h126.724     c-3.202,11.315-14.089,15.592-46.516,21.865C122.543,158.169,58.19,170.849,45.176,262.63l-7.259-4.839     C36.167,256.625,34.104,256,32,256H10.667c-4.531,0-8.563,2.865-10.063,7.135S0.469,272.167,4,275z M362.667,42.667     C374.427,42.667,384,52.24,384,64c0,11.76-9.573,21.333-21.333,21.333c-11.76,0-21.333-9.573-21.333-21.333     C341.333,52.24,350.906,42.667,362.667,42.667z M298.667,42.667C310.427,42.667,320,52.24,320,64     c0,11.76-9.573,21.333-21.333,21.333S277.333,75.76,277.333,64C277.333,52.24,286.906,42.667,298.667,42.667z M106.667,74.667     c0,5.896-4.771,10.667-10.667,10.667c-5.896,0-10.667-4.771-10.667-10.667V53.333c0-5.896,4.771-10.667,10.667-10.667     c5.896,0,10.667,4.771,10.667,10.667V74.667z M149.333,74.667c0,5.896-4.771,10.667-10.667,10.667S128,80.562,128,74.667V53.333     c0-5.896,4.771-10.667,10.667-10.667s10.667,4.771,10.667,10.667V74.667z M192,74.667c0,5.896-4.771,10.667-10.667,10.667     c-5.896,0-10.667-4.771-10.667-10.667V53.333c0-5.896,4.771-10.667,10.667-10.667c5.896,0,10.667,4.771,10.667,10.667V74.667z"/>
		</g>
	</g>
</g>
<g>
</g>
<g>
</g>
<g>
</g>
<g>
</g>
<g>
</g>
<g>
</g>
<g>
</g>
<g>
</g>
<g>
</g>
<g>
</g>
<g>
</g>
<g>
</g>
<g>
</g>
<g>
</g>
<g>
</g>
</svg>
