<svg height="512pt" viewBox="-82 0 511 512" width="512pt" xmlns="http://www.w3.org/2000/svg"><path d="m136.367188 190.914062 54.851562-54.898437 21.222656 21.203125-54.851562 54.898438zm0 0" fill="#b0e1ff"/><path d="m135.558594 321.886719 21.222656-21.203125 54.851562 54.898437-21.222656 21.203125zm0 0" fill="#b0e1ff"/><path d="m347.5 91.699219c0 50.5625-41.101562 91.699219-91.628906 91.699219-50.519532 0-91.632813-41.136719-91.632813-91.699219 0-50.558594 41.113281-91.699219 91.632813-91.699219 50.527344 0 91.628906 41.140625 91.628906 91.699219zm0 0" fill="#ffda2f"/><path d="m347.5 420.300781c0 50.558594-41.101562 91.699219-91.628906 91.699219-50.519532 0-91.632813-41.140625-91.632813-91.699219 0-50.5625 41.113281-91.699219 91.632813-91.699219 50.527344 0 91.628906 41.136719 91.628906 91.699219zm0 0" fill="#ffda2f"/><path d="m183.761719 256.398438c0 50.570312-41.113281 91.703124-91.632813 91.703124-50.527344 0-91.628906-41.132812-91.628906-91.703124 0-50.558594 41.101562-91.699219 91.628906-91.699219 50.519532 0 91.632813 41.140625 91.632813 91.699219zm0 0" fill="#0db2ff"/><path d="m183.761719 256.398438c0 50.570312-41.113281 91.703124-91.632813 91.703124v-183.402343c50.519532 0 91.632813 41.140625 91.632813 91.699219zm0 0" fill="#0089ff"/><path d="m140.148438 256c0 26.46875-21.527344 48-48 48-.007813 0-.007813 0-.019532 0-26.457031-.011719-47.980468-21.539062-47.980468-48s21.523437-47.988281 47.980468-48h.019532c26.472656 0 48 21.53125 48 48zm0 0" fill="#daf0fa"/><path d="m347.5 420.300781c0 50.558594-41.101562 91.699219-91.628906 91.699219v-183.398438c50.527344 0 91.628906 41.136719 91.628906 91.699219zm0 0" fill="#ffbc1d"/><path d="m255.871094 183.398438v-183.398438c50.527344 0 91.628906 41.140625 91.628906 91.699219 0 50.5625-41.101562 91.699219-91.628906 91.699219zm0 0" fill="#ffbc1d"/><path d="m140.148438 256c0 26.46875-21.527344 48-48 48-.007813 0-.007813 0-.019532 0v-96h.019532c26.472656 0 48 21.53125 48 48zm0 0" fill="#b0e1ff"/></svg>