<svg height="512pt" viewBox="0 0 512 512" width="512pt" xmlns="http://www.w3.org/2000/svg"><path d="m512 40.910156v430.179688c0 22.558594-18.351562 40.910156-40.910156 40.910156h-430.179688c-22.558594 0-40.910156-18.351562-40.910156-40.910156v-377.089844l471.089844-94c22.558594 0 40.910156 18.351562 40.910156 40.910156zm0 0" fill="#daf0fa"/><path d="m512 40.910156v430.179688c0 22.558594-18.351562 40.910156-40.910156 40.910156h-215.089844v-512h215.089844c22.558594 0 40.910156 18.351562 40.910156 40.910156zm0 0" fill="#b0e1ff"/><path d="m512 40.910156v53.089844h-404.953125l40.203125-61.25 108.75-32.75h215.089844c22.558594 0 40.910156 18.351562 40.910156 40.910156zm0 0" fill="#003481"/><path d="m447 386c0 8.28125-6.71875 15-15 15h-342.730469c-9.941406 0-18.679687-5.621094-22.800781-14.671875-4.117188-9.039063-2.628906-19.316406 3.890625-26.828125l70.082031-80.589844c4.539063-5.230468 11.589844-7.640625 18.386719-6.289062l2.550781.5 53.160156 31.730468 41.460938-51.53125 34.929688-43.410156.582031-.570312c5.039062-5.039063 12.410156-6.898438 19.238281-4.871094l2.148438.640625 47.710937 31.710937 41.242187-45.851562c5.539063-6.160156 15.019532-6.660156 21.179688-1.117188 6.160156 5.539063 6.660156 15.019532 1.117188 21.179688l-47.257813 52.546875c-4.992187 5.75-12.871094 8.0625-20.179687 5.882813l-2.152344-.652344-47.25-31.386719-51.308594 63.757813-24.839844 30.871093-.570312.570313c-4.589844 4.578125-11.121094 6.558594-17.480469 5.308594l-2.539063-.507813-53.492187-31.933594-56.957031 65.511719h331.878906c8.28125 0 15 6.71875 15 15zm0 0" fill="#0db2ff"/><path d="m85 0v94h-85v-53.089844c0-22.558594 18.351562-40.910156 40.910156-40.910156zm0 0" fill="#ffda2f"/><path d="m85 0h85v94h-85zm0 0" fill="#0db2ff"/><g fill="#0089ff"><path d="m170 0h86v94h-86zm0 0"/><path d="m307.308594 237.421875-51.308594 63.757813v-47.859376l34.929688-43.410156.582031-.570312c5.039062-5.039063 12.410156-6.898438 19.238281-4.871094l2.148438.640625 47.710937 31.710937 41.242187-45.851562c5.539063-6.160156 15.019532-6.660156 21.179688-1.117188 6.160156 5.539063 6.660156 15.019532 1.117188 21.179688l-47.257813 52.546875c-4.992187 5.75-12.871094 8.0625-20.179687 5.882813l-2.152344-.652344zm0 0"/><path d="m447 386c0 8.28125-6.71875 15-15 15h-176v-30h176c8.28125 0 15 6.71875 15 15zm0 0"/></g></svg>