<svg height="512pt" viewBox="-42 0 512 512" width="512pt" xmlns="http://www.w3.org/2000/svg"><path d="m216.035156 190.914062 54.851563-54.898437 21.222656 21.207031-54.851563 54.898438zm0 0" fill="#b0e1ff"/><path d="m215.226562 321.886719 21.222657-21.203125 54.851562 54.898437-21.222656 21.203125zm0 0" fill="#b0e1ff"/><path d="m255.429688 256.398438c0 39.203124-17.730469 74.339843-45.578126 97.800781-22.222656 18.722656-50.890624 30.019531-82.140624 30.019531s-59.921876-11.296875-82.132813-30.019531c-27.859375-23.460938-45.578125-58.597657-45.578125-97.800781 0-70.476563 57.289062-127.820313 127.710938-127.820313 70.417968 0 127.71875 57.34375 127.71875 127.820313zm0 0" fill="#0db2ff"/><path d="m427.171875 91.699219c0 50.5625-41.113281 91.699219-91.632813 91.699219-50.519531 0-91.628906-41.136719-91.628906-91.699219 0-50.558594 41.109375-91.699219 91.628906-91.699219 50.519532 0 91.632813 41.140625 91.632813 91.699219zm0 0" fill="#ffda2f"/><path d="m427.171875 420.300781c0 50.558594-41.113281 91.699219-91.632813 91.699219-50.519531 0-91.628906-41.140625-91.628906-91.699219 0-50.5625 41.109375-91.699219 91.628906-91.699219 50.519532 0 91.632813 41.136719 91.632813 91.699219zm0 0" fill="#ffda2f"/><path d="m255.429688 256.398438c0 39.203124-17.730469 74.339843-45.578126 97.800781-22.222656 18.722656-50.890624 30.019531-82.140624 30.019531v-255.640625c70.417968 0 127.71875 57.34375 127.71875 127.820313zm0 0" fill="#0089ff"/><path d="m209.851562 333.140625v21.058594c-22.222656 18.722656-50.890624 30.019531-82.140624 30.019531s-59.921876-11.296875-82.132813-30.019531v-21.058594c0-45.289063 36.84375-82.140625 82.132813-82.140625 45.289062 0 82.140624 36.851562 82.140624 82.140625zm0 0" fill="#86e323"/><path d="m209.851562 333.140625v21.058594c-22.222656 18.722656-50.890624 30.019531-82.140624 30.019531v-133.21875c45.289062 0 82.140624 36.851562 82.140624 82.140625zm0 0" fill="#60c400"/><path d="m173.25 235.460938c0 25.109374-20.429688 45.539062-45.539062 45.539062-25.109376 0-45.539063-20.429688-45.539063-45.539062 0-25.109376 20.429687-45.539063 45.539063-45.539063 25.109374 0 45.539062 20.429687 45.539062 45.539063zm0 0" fill="#ffda2f"/><g fill="#ffbc1d"><path d="m173.25 235.460938c0 25.109374-20.429688 45.539062-45.539062 45.539062v-91.078125c25.109374 0 45.539062 20.429687 45.539062 45.539063zm0 0"/><path d="m427.171875 420.300781c0 50.558594-41.113281 91.699219-91.632813 91.699219v-183.398438c50.519532 0 91.632813 41.136719 91.632813 91.699219zm0 0"/><path d="m335.539062 183.398438v-183.398438c50.519532 0 91.632813 41.140625 91.632813 91.699219 0 50.5625-41.113281 91.699219-91.632813 91.699219zm0 0"/></g></svg>